<svg xmlns="http://www.w3.org/2000/svg" width="1024" height="247" version="1" viewBox="-1.061 -1.061 155.505 37.479">
  <path fill="#8e8e8e" fillOpacity="1" fillRule="nonzero" stroke="none" d="M114.086.046h8.638v35.302h-8.638V.046z">
  </path>
  <path fill="#8e8e8e" fillOpacity="1" fillRule="nonzero" stroke="none"
    d="M33.974 35.349L33.96 0 16.98 12.174 0 .046V35.35h8.639V17.18l8.341 5.566 8.355-5.598v18.2h8.639z"></path>
  <path fill="#8e8e8e" fillOpacity="1" fillRule="nonzero" stroke="none"
    d="M153.384.046h-28.561v8.639h10.127v26.663h8.639V8.686h9.795V.046z"></path>
  <path fill="#8e8e8e" fillOpacity="1" fillRule="nonzero" stroke="none"
    d="M52.977.046c-9.748 0-17.651 7.902-17.651 17.651 0 9.749 7.902 17.652 17.651 17.652 9.749 0 17.652-7.903 17.652-17.652C70.629 7.95 62.726.046 52.977.046m0 8.638c4.97 0 9.014 4.043 9.014 9.013s-4.044 9.014-9.014 9.014-9.013-4.044-9.013-9.014 4.043-9.013 9.013-9.013">
  </path>
  <path fill="#8e8e8e" fillOpacity="1" fillRule="nonzero" stroke="none"
    d="M95.484.046L86.47 23.72 77.462.046h-8.639l13.33 35.021h8.638L104.122.046h-8.638z"></path>
  <path fill="#ed1c24" fillOpacity="1" fillRule="nonzero" stroke="none"
    d="M64.015.037l-1.942 2.557v7.104a11.775 11.775 0 013.128 7.999c0 3.084-1.188 5.892-3.128 8V32.8l1.942 2.557c5.372-4.024 8.857-10.431 8.857-17.661 0-7.229-3.485-13.636-8.857-17.66">
  </path>
  <path fill="#8e8e8e" fillOpacity="1" fillRule="nonzero" stroke="none"
    d="M150.667 31.71h-.482v.864h.482c.28 0 .47-.19.47-.431 0-.242-.19-.433-.47-.433m.47 2.417l-.587-1.135h-.365v1.135h-.528v-2.863h1.075c.543 0 .923.403.923.879 0 .402-.249.665-.563.775l.637 1.209h-.593zm-.557-3.588c-1.186 0-2.124.951-2.124 2.16 0 1.208.938 2.159 2.124 2.159 1.185 0 2.115-.951 2.115-2.159 0-1.208-.93-2.16-2.115-2.16m0 4.81a2.649 2.649 0 01-2.65-2.65 2.649 2.649 0 115.3 0 2.65 2.65 0 01-2.65 2.65">
  </path>
  <path fill="#ed1c24" fillOpacity="1" fillRule="nonzero" stroke="none"
    d="M112.694 4.365a4.319 4.319 0 11-8.638 0 4.319 4.319 0 018.638 0"></path>
</svg>